<svg xmlns="http://www.w3.org/2000/svg" xmlns:xlink="http://www.w3.org/1999/xlink" width="34.824" height="34.824" viewBox="0 0 34.824 34.824">
  <defs>
    <filter id="Path_26354" x="0" y="0" width="34.824" height="34.824" filterUnits="userSpaceOnUse">
      <feOffset dy="3" input="SourceAlpha"/>
      <feGaussianBlur stdDeviation="3" result="blur"/>
      <feFlood flood-color="#e84e3b" flood-opacity="0.259"/>
      <feComposite operator="in" in2="blur"/>
      <feComposite in="SourceGraphic"/>
    </filter>
  </defs>
  <g id="clock_1_" data-name="clock (1)" transform="translate(7.152 3.557)">
    <g id="Group_2830" data-name="Group 2830" transform="translate(3.009)">
      <g id="Group_2829" data-name="Group 2829">
        <path id="Path_26353" data-name="Path 26353" d="M77.272,4.422,76.03,3.18a.6.6,0,0,0-.85.85l1.242,1.242a.6.6,0,0,0,.85-.85ZM89.329,3.18a.6.6,0,0,0-.85,0L87.042,4.618a.6.6,0,1,0,.85.85L89.329,4.03A.6.6,0,0,0,89.329,3.18Zm-10.536,14a.606.606,0,0,0-.806.269L76.911,19.64a.6.6,0,0,0,1.075.537l1.076-2.192A.6.6,0,0,0,78.793,17.179ZM83.457,0h-2.4a.6.6,0,1,0,0,1.2h.6V3.044a.6.6,0,0,0,1.2,0V1.2h.6a.6.6,0,1,0,0-1.2Zm3.066,17.448a.6.6,0,0,0-1.075.537l1.076,2.192A.6.6,0,0,0,87.6,19.64Z" transform="translate(-75.005)" fill="#e84e3b"/>
      </g>
    </g>
    <g id="Alarm_Clock_1_" transform="translate(0.005 0.034)">
      <g id="Group_2831" data-name="Group 2831" transform="translate(1.843 2.409)">
        <g transform="matrix(1, 0, 0, 1, -9, -6)" filter="url(#Path_26354)">
          <path id="Path_26354-2" data-name="Path 26354" d="M54.417,77.824a8.412,8.412,0,1,1,8.412-8.412A8.422,8.422,0,0,1,54.417,77.824Z" transform="translate(-37.01 -55)" fill="#e84e3b"/>
        </g>
      </g>
      <g id="Group_2832" data-name="Group 2832" transform="translate(4.246 4.813)">
        <path id="Path_26355" data-name="Path 26355" d="M112.014,133.017a6.009,6.009,0,1,1,6.009-6.009A6.016,6.016,0,0,1,112.014,133.017Z" transform="translate(-106.005 -121)" fill="#fff"/>
      </g>
      <g id="Group_2834" data-name="Group 2834" transform="translate(0)">
        <g id="Group_2833" data-name="Group 2833">
          <path id="Path_26356" data-name="Path 26356" d="M1.061,1.878a3.6,3.6,0,0,0,0,5.1.6.6,0,0,0,.85,0L6.159,2.728a.6.6,0,0,0,0-.85,3.69,3.69,0,0,0-5.1,0Zm18.4,0a3.69,3.69,0,0,0-5.1,0,.6.6,0,0,0,0,.85l4.248,4.248a.6.6,0,0,0,.85,0,3.6,3.6,0,0,0,0-5.1Z" transform="translate(-0.005 -0.857)" fill="#e84e3b"/>
        </g>
      </g>
      <g id="Group_2835" data-name="Group 2835" transform="translate(7.25 7.216)">
        <path id="Path_26357" data-name="Path 26357" d="M181.607,187.609a.6.6,0,0,1-.425-1.026l2.227-2.227V181.6a.6.6,0,0,1,1.2,0v3a.6.6,0,0,1-.176.425l-2.4,2.4A.6.6,0,0,1,181.607,187.609Z" transform="translate(-181.006 -181)" fill="#e84e3b"/>
      </g>
    </g>
  </g>
</svg>
