<svg xmlns="http://www.w3.org/2000/svg" xmlns:xlink="http://www.w3.org/1999/xlink" width="35.556" height="36.263" viewBox="0 0 35.556 36.263"><defs><filter id="a" x="0" y="0" width="35.556" height="36.263" filterUnits="userSpaceOnUse"><feOffset dy="3" input="SourceAlpha"/><feGaussianBlur stdDeviation="3" result="b"/><feFlood flood-color="#e84e3b" flood-opacity="0.102"/><feComposite operator="in" in2="b"/><feComposite in="SourceGraphic"/></filter></defs><g transform="translate(-867.5 -4569.5)"><g transform="matrix(1, 0, 0, 1, 867.5, 4569.5)" filter="url(#a)"><path d="M14.191,128H2.365A2.574,2.574,0,0,0,0,130.365v7.1a2.316,2.316,0,0,0,2.365,2.365H3.548v4.73l4.73-4.73h5.913a2.638,2.638,0,0,0,2.365-2.365v-7.1A2.574,2.574,0,0,0,14.191,128Z" transform="translate(9.5 -121.5)" fill="#fff" stroke="rgba(55,71,87,0.42)" stroke-width="1"/></g><path d="M1036.824-439.908a1.181,1.181,0,0,1,1.185,1.161,1.186,1.186,0,0,1-1.187,1.2,1.184,1.184,0,0,1-1.176-1.172A1.177,1.177,0,0,1,1036.824-439.908Z" transform="translate(-155.677 5020.164)" fill="#374757"/><path d="M1106.277-439.908a1.178,1.178,0,0,1,1.185,1.178,1.186,1.186,0,0,1-1.171,1.178,1.184,1.184,0,0,1-1.193-1.173A1.179,1.179,0,0,1,1106.277-439.908Z" transform="translate(-217.195 5020.164)" fill="#374757"/><path d="M1071.613-439.909a1.171,1.171,0,0,1,1.155,1.2,1.177,1.177,0,0,1-1.207,1.153,1.177,1.177,0,0,1-1.146-1.214A1.171,1.171,0,0,1,1071.613-439.909Z" transform="translate(-186.473 5020.166)" fill="#374757"/></g></svg>