<svg xmlns="http://www.w3.org/2000/svg" width="19.874" height="18.42" viewBox="0 0 19.874 18.42">
  <g id="Group_4829" data-name="Group 4829" transform="translate(-263.223 -250.745)" opacity="0.55">
    <path id="Path_30604" data-name="Path 30604" d="M336.987,259.846a8.575,8.575,0,0,1,4.748-7.214,8.822,8.822,0,0,0-5.668,7.2h-.817a7.865,7.865,0,0,1,2.1-5.5,7.507,7.507,0,0,1,5.339-2.5v-.421a3.986,3.986,0,0,1-.5-.144.324.324,0,0,1-.18-.2c-.008-.051.1-.15.179-.178a2.177,2.177,0,0,1,1.552,0c.075.028.171.119.174.184s-.095.147-.167.188a.679.679,0,0,1-.3.094c-.176.006-.234.08-.21.246a1.879,1.879,0,0,1,0,.24,7.849,7.849,0,0,1,7.415,8Zm11.761-3.034a4.108,4.108,0,0,0-2.607-3.406,4.078,4.078,0,0,1,2.183,3.406Z" transform="translate(-68.209 0)" fill="#374757"/>
    <path id="Path_30605" data-name="Path 30605" d="M305.858,459.251c0-.663.011-1.326,0-1.988a.938.938,0,0,1,.416-.811,3.6,3.6,0,0,1,1.87-.584,3.22,3.22,0,0,1,1.568.269c1.348.546,2.7,1.085,4.05,1.627.043.017.087.032.129.05a.941.941,0,0,1,.437,1.544,1.083,1.083,0,0,1-1.343.468c-.463-.155-.918-.337-1.376-.507-.074-.027-.148-.059-.224-.081a.539.539,0,0,0-.738.509.356.356,0,0,0,.282.38c.545.205,1.088.415,1.632.623.111.043.224.081.332.131a.906.906,0,0,0,.886-.072q2.406-1.372,4.823-2.727a1.832,1.832,0,0,1,1.243-.236.851.851,0,0,1,.705,1.072,1.479,1.479,0,0,1-.74,1q-2.108,1.173-4.195,2.385c-.383.222-.736.5-1.11.734a2.057,2.057,0,0,1-1.893.221c-1.143-.4-2.272-.832-3.384-1.313a5.139,5.139,0,0,0-2.943-.3c-.358.06-.422.014-.422-.353Q305.858,460.275,305.858,459.251Z" transform="translate(-40.37 -194.234)" fill="#374757"/>
    <path id="Path_30606" data-name="Path 30606" d="M340.214,429.247v.653H323.538v-.653Z" transform="translate(-57.117 -169.038)" fill="#374757"/>
    <path id="Path_30607" data-name="Path 30607" d="M265.175,480.049c0,.6,0,1.193,0,1.789a.467.467,0,0,1-.522.529q-.457,0-.914,0a.474.474,0,0,1-.514-.523c0-.835,0-1.669,0-2.5,0-.364,0-.729,0-1.093a.49.49,0,0,1,.529-.537c.3-.005.6,0,.894,0a.481.481,0,0,1,.527.532C265.177,478.843,265.175,479.446,265.175,480.049Zm-.716-1.251a.362.362,0,0,0,.355-.332.355.355,0,1,0-.71-.021A.36.36,0,0,0,264.459,478.8Z" transform="translate(0 -214.926)" fill="#374757"/>
  </g>
</svg>
