<svg xmlns="http://www.w3.org/2000/svg" xmlns:xlink="http://www.w3.org/1999/xlink" width="38.672" height="38.672" viewBox="0 0 38.672 38.672"><defs><filter id="a" x="8.524" y="5.901" width="21.623" height="32.771" filterUnits="userSpaceOnUse"><feOffset dy="3" input="SourceAlpha"/><feGaussianBlur stdDeviation="3" result="b"/><feFlood flood-color="#e84e3b" flood-opacity="0.259"/><feComposite operator="in" in2="b"/><feComposite in="SourceGraphic"/></filter><filter id="c" x="4.262" y="9.836" width="21.623" height="28.836" filterUnits="userSpaceOnUse"><feOffset dy="3" input="SourceAlpha"/><feGaussianBlur stdDeviation="3" result="d"/><feFlood flood-color="#e84e3b" flood-opacity="0.259"/><feComposite operator="in" in2="d"/><feComposite in="SourceGraphic"/></filter><filter id="e" x="0" y="14.426" width="21.623" height="24.246" filterUnits="userSpaceOnUse"><feOffset dy="3" input="SourceAlpha"/><feGaussianBlur stdDeviation="3" result="f"/><feFlood flood-color="#e84e3b" flood-opacity="0.259"/><feComposite operator="in" in2="f"/><feComposite in="SourceGraphic"/></filter><filter id="g" x="12.787" y="1.967" width="21.623" height="36.705" filterUnits="userSpaceOnUse"><feOffset dy="3" input="SourceAlpha"/><feGaussianBlur stdDeviation="3" result="h"/><feFlood flood-color="#e84e3b" flood-opacity="0.259"/><feComposite operator="in" in2="h"/><feComposite in="SourceGraphic"/></filter><filter id="i" x="17.049" y="0" width="21.623" height="38.672" filterUnits="userSpaceOnUse"><feOffset dy="3" input="SourceAlpha"/><feGaussianBlur stdDeviation="3" result="j"/><feFlood flood-color="#e84e3b" flood-opacity="0.259"/><feComposite operator="in" in2="j"/><feComposite in="SourceGraphic"/></filter></defs><g transform="translate(7.5 4.5)"><g transform="matrix(1, 0, 0, 1, -7.5, -4.5)" filter="url(#a)"><path d="M29.311,20A1.311,1.311,0,0,0,28,21.311V32.459a1.311,1.311,0,1,0,2.623,0V21.311A1.311,1.311,0,0,0,29.311,20Z" transform="translate(-9.98 -7.6)" fill="#e84e3b" stroke="rgba(0,0,0,0)" stroke-width="1"/></g><g transform="matrix(1, 0, 0, 1, -7.5, -4.5)" filter="url(#c)"><path d="M16.311,32A1.311,1.311,0,0,0,15,33.311v7.213a1.311,1.311,0,1,0,2.623,0V33.311A1.311,1.311,0,0,0,16.311,32Z" transform="translate(-1.24 -15.66)" fill="#e84e3b" stroke="rgba(0,0,0,0)" stroke-width="1"/></g><g transform="matrix(1, 0, 0, 1, -7.5, -4.5)" filter="url(#e)"><path d="M3.311,46A1.311,1.311,0,0,0,2,47.311v2.623a1.311,1.311,0,1,0,2.623,0V47.311A1.311,1.311,0,0,0,3.311,46Z" transform="translate(7.5 -25.07)" fill="#e84e3b" stroke="rgba(0,0,0,0)" stroke-width="1"/></g><g transform="matrix(1, 0, 0, 1, -7.5, -4.5)" filter="url(#g)"><path d="M42.311,8A1.311,1.311,0,0,0,41,9.311V24.393a1.311,1.311,0,1,0,2.623,0V9.311A1.311,1.311,0,0,0,42.311,8Z" transform="translate(-18.71 0.47)" fill="#e84e3b" stroke="rgba(0,0,0,0)" stroke-width="1"/></g><g transform="matrix(1, 0, 0, 1, -7.5, -4.5)" filter="url(#i)"><path d="M55.311,2A1.311,1.311,0,0,0,54,3.311V20.36a1.311,1.311,0,0,0,2.623,0V3.311A1.311,1.311,0,0,0,55.311,2Z" transform="translate(-27.45 4.5)" fill="#e84e3b" stroke="rgba(0,0,0,0)" stroke-width="1"/></g></g></svg>