<svg xmlns="http://www.w3.org/2000/svg" width="24.739" height="24.738" viewBox="0 0 24.739 24.738"><g transform="translate(0)"><path d="M17.369,0h-10A7.378,7.378,0,0,0,0,7.369v10a7.378,7.378,0,0,0,7.37,7.369h10a7.378,7.378,0,0,0,7.37-7.369v-10A7.378,7.378,0,0,0,17.369,0ZM22.25,17.368a4.881,4.881,0,0,1-4.881,4.881h-10a4.881,4.881,0,0,1-4.881-4.881v-10A4.881,4.881,0,0,1,7.37,2.489h10A4.881,4.881,0,0,1,22.25,7.369v10Z" transform="translate(0 0)" fill="#3f729b"/><path d="M139.4,133a6.4,6.4,0,1,0,6.4,6.4A6.405,6.405,0,0,0,139.4,133Zm0,10.307a3.909,3.909,0,1,1,3.91-3.909A3.909,3.909,0,0,1,139.4,143.307Z" transform="translate(-127.029 -127.029)" fill="#3f729b"/><ellipse cx="1.533" cy="1.533" rx="1.533" ry="1.533" transform="translate(17.247 4.488)" fill="#3f729b"/></g></svg>