<svg xmlns="http://www.w3.org/2000/svg" xmlns:xlink="http://www.w3.org/1999/xlink" width="32.176" height="36.828" viewBox="0 0 32.176 36.828">
  <defs>
    <filter id="Path_26351" x="0" y="0" width="32.176" height="36.828" filterUnits="userSpaceOnUse">
      <feOffset dy="3" input="SourceAlpha"/>
      <feGaussianBlur stdDeviation="3" result="blur"/>
      <feFlood flood-color="#e84e3b" flood-opacity="0.259"/>
      <feComposite operator="in" in2="blur"/>
      <feComposite in="SourceGraphic"/>
    </filter>
  </defs>
  <g id="flame" transform="translate(-54.168 6)">
    <g transform="matrix(1, 0, 0, 1, 54.17, -6)" filter="url(#Path_26351)">
      <path id="Path_26351-2" data-name="Path 26351" d="M66.011,17.127a13.288,13.288,0,0,1-2.278-3.221A7.3,7.3,0,0,1,63.3,9.7a9.065,9.065,0,0,1,1.807-3.889,3.746,3.746,0,0,0,.943,2.75,6.535,6.535,0,0,1,1.493-5.421A11.228,11.228,0,0,1,72.335,0a3.872,3.872,0,0,0-.668,3.692,15.4,15.4,0,0,0,1.768,3.5A7.8,7.8,0,0,1,74.771,10.8a12.633,12.633,0,0,0,.982-2.082,4.114,4.114,0,0,0,.157-2.278,5.842,5.842,0,0,1,1.3,2.828,11.887,11.887,0,0,1,.039,3.339,8.35,8.35,0,0,1-1.139,3.5,6.56,6.56,0,0,1-3.417,2.553A7.768,7.768,0,0,1,66.011,17.127Z" transform="translate(-54.17 6)" fill="#e84e3b"/>
    </g>
    <path id="Path_26352" data-name="Path 26352" d="M153.555,226.112a3.866,3.866,0,0,0,4.635-5.5c0-.039-.039-.039-.039-.079a3.967,3.967,0,0,1-.982,3.457,3.669,3.669,0,0,0-.354-2.985c-.471-.9-1.139-1.728-1.65-2.593a4.175,4.175,0,0,1-.668-2.946,5.18,5.18,0,0,0-1.885,2.907,5.258,5.258,0,0,0,.393,3.457,2.582,2.582,0,0,1-1.061-1.886,4.045,4.045,0,0,0-.982,2.71A4,4,0,0,0,153.555,226.112Z" transform="translate(-84.559 -208.759)" fill="#fff"/>
  </g>
</svg>
