<svg xmlns="http://www.w3.org/2000/svg" width="17.306" height="16.016" viewBox="0 0 17.306 16.016">
  <g id="Group_4830" data-name="Group 4830" transform="translate(-169.177 -331.059)" opacity="0.55">
    <path id="Path_30608" data-name="Path 30608" d="M171.16,432.048V430.21c-.093-.026-.182-.046-.268-.076a.666.666,0,0,1,.162-1.292c.051,0,.1,0,.154,0h13.153c.457,0,.735.209.778.576a.666.666,0,0,1-.446.725c-.085.036-.206.129-.208.2-.017.551-.009,1.1-.009,1.7a1.3,1.3,0,0,0,.7-.767.669.669,0,0,1,1.033-.323.66.66,0,0,1,.216.8,2.532,2.532,0,0,1-1.684,1.588.333.333,0,0,0-.274.389c.01,1.2.006,2.4,0,3.6a1.348,1.348,0,0,1-1.5,1.5H172.683a1.345,1.345,0,0,1-1.506-1.5c0-1.191-.006-2.382,0-3.573,0-.238-.049-.354-.3-.432a2.515,2.515,0,0,1-1.614-1.46.687.687,0,0,1,.305-.989.674.674,0,0,1,.922.454A1.331,1.331,0,0,0,171.16,432.048Z" transform="translate(0 -91.753)" fill="#374757"/>
    <path id="Path_30609" data-name="Path 30609" d="M192.329,332.669c.6-.079,1.185-.135,1.758-.237a1.736,1.736,0,0,1,1.548.4,1.891,1.891,0,0,0,1.629.547.613.613,0,0,1,.682.6.648.648,0,0,1-.58.71q-3.92.527-7.841,1.05c-1.759.236-3.519.47-5.277.713a.726.726,0,0,1-.8-.308.666.666,0,0,1,.509-1.015,1.384,1.384,0,0,0,.946-.523c.9-1.26,1.059-1.057,2.46-1.274.313-.048.627-.088.969-.137-.014-.168-.023-.318-.039-.467a1.34,1.34,0,0,1,1.128-1.485q.7-.1,1.4-.176a1.348,1.348,0,0,1,1.434,1.125C192.279,332.331,192.3,332.473,192.329,332.669Zm-2.646.36,1.3-.194-.054-.447-1.3.187Z" transform="translate(-13.29 0)" fill="#374757"/>
  </g>
</svg>
