<svg xmlns="http://www.w3.org/2000/svg" xmlns:xlink="http://www.w3.org/1999/xlink" width="79" height="38.693" viewBox="0 0 79 38.693"><defs><linearGradient id="a" x1="0.5" y1="1" x2="0.5" gradientUnits="objectBoundingBox"><stop offset="0" stop-color="#cb2027"/><stop offset="1" stop-color="#f37979"/></linearGradient></defs><g transform="translate(-393.55 -422.688)"><g transform="translate(393.55 422.688)" stroke="#ad1319" stroke-linejoin="round" stroke-width="1" fill="url(#a)"><rect width="79" height="38.693" rx="3" stroke="none"/><rect x="0.5" y="0.5" width="78" height="37.693" rx="2.5" fill="none"/></g><g transform="translate(408.06 430.748)"><g transform="translate(0 0)"><g transform="translate(0)"><path d="M322.543,247.91a2.192,2.192,0,0,0,2.064-1.8,1.432,1.432,0,0,0-1.436-1.774,2.2,2.2,0,0,0-2.066,1.774A1.434,1.434,0,0,0,322.543,247.91Z" transform="translate(-302.004 -239.954)" fill="#fff"/><path d="M333.136,262.271a1.123,1.123,0,0,1-.739.311c-.682,0-.97-.343-.97-1.079,0-1.159,1.144-4.06,1.144-5.377,0-1.758-.945-2.777-2.884-2.777a4.255,4.255,0,0,0-3.025,1.477s.163-.565.219-.782a.347.347,0,0,0-.366-.455H324.62a.516.516,0,0,0-.574.452c-.024.095-.706,2.769-1.362,5.335-.449,1.758-1.538,3.226-2.7,3.226-.6,0-.866-.374-.866-1.011A24.331,24.331,0,0,1,319.9,258c.517-2.051.974-3.739,1.022-3.937a.35.35,0,0,0-.377-.473h-1.906a.5.5,0,0,0-.541.432s-.537,2.026-1.105,4.281a25.08,25.08,0,0,0-.868,4.086,2.155,2.155,0,0,0,2.359,2.451,4.368,4.368,0,0,0,3.2-1.535c-.119.465-.194.76-.2.79-.069.266.015.5.329.5h1.951a.475.475,0,0,0,.541-.431c.068-.282,1.525-6,1.525-6,.385-1.535,1.337-2.552,2.677-2.552a1.068,1.068,0,0,1,1.122,1.235c-.071.9-1.155,4.12-1.155,5.534a2.195,2.195,0,0,0,2.418,2.455,4.044,4.044,0,0,0,3.129-1.509Z" transform="translate(-299.349 -244.789)" fill="#fff"/><path d="M289.219,234.88c-6.176,0-9.29,4.417-9.29,8.1,0,2.23.846,4.214,2.662,4.953a.448.448,0,0,0,.651-.325c.06-.227.2-.8.266-1.04a.629.629,0,0,0-.187-.723,3.731,3.731,0,0,1-.858-2.542,6.149,6.149,0,0,1,6.4-6.209c3.491,0,5.409,2.128,5.409,4.968,0,3.738-1.659,6.893-4.121,6.893a2.007,2.007,0,0,1-2.052-2.5c.391-1.642,1.148-3.415,1.148-4.6a1.738,1.738,0,0,0-1.753-1.946c-1.39,0-2.507,1.434-2.507,3.356a4.98,4.98,0,0,0,.414,2.052l-1.672,7.064a14.507,14.507,0,0,0-.039,4.927.173.173,0,0,0,.309.074,13.818,13.818,0,0,0,2.347-4.242c.159-.577.914-3.564.914-3.564a3.729,3.729,0,0,0,3.175,1.616c4.179,0,7.014-3.8,7.014-8.886C297.449,238.462,294.183,234.88,289.219,234.88Z" transform="translate(-279.929 -234.88)" fill="#fff"/><path d="M367.956,247.924a2.182,2.182,0,0,0,2.054-1.792,1.426,1.426,0,0,0-1.43-1.766,2.189,2.189,0,0,0-2.057,1.766A1.428,1.428,0,0,0,367.956,247.924Z" transform="translate(-326.373 -239.97)" fill="#fff"/><path d="M373.708,256.739a2.317,2.317,0,0,1-1.719,1.174.884.884,0,0,1-.929-1.007,25.815,25.815,0,0,1,.81-3.563c.142-.561.358-1.417.6-2.366h1.986a.481.481,0,0,0,.536-.4c.1-.4.269-1.089.319-1.279a.33.33,0,0,0-.357-.436H373s.9-3.577.92-3.669c.087-.364-.218-.573-.538-.506,0,0-1.509.295-1.789.353a.728.728,0,0,0-.6.615l-.8,3.207h-1.568a.48.48,0,0,0-.536.4c-.1.4-.27,1.09-.318,1.279a.33.33,0,0,0,.356.436h1.537c-.011.044-.555,2.109-1,3.958-.207.889-1.466,2.97-2.6,2.97-.6,0-1.519-.375-1.519-1.008a24.232,24.232,0,0,1,.778-3.576c.515-2.042.97-3.723,1.018-3.92a.348.348,0,0,0-.375-.471h-1.9a.5.5,0,0,0-.539.43s-.535,2.017-1.1,4.262a24.945,24.945,0,0,0-.864,4.068c0,1.391,1.886,2.44,3.609,2.44a3.91,3.91,0,0,0,3.067-1.479,2.123,2.123,0,0,0,2.287,1.5,4.814,4.814,0,0,0,4.248-2.574Z" transform="translate(-323.73 -240.138)" fill="#fff"/></g></g><path d="M3.761,22.429A14.506,14.506,0,0,1,3.8,17.5l1.672-7.064a4.978,4.978,0,0,1-.415-2.052c0-1.922,1.117-3.356,2.507-3.356A1.738,1.738,0,0,1,9.317,6.976c0,1.185-.757,2.958-1.147,4.6a2.007,2.007,0,0,0,2.051,2.5c2.463,0,4.121-3.155,4.121-6.893,0-2.84-1.918-4.968-5.409-4.968a6.149,6.149,0,0,0-6.4,6.209,3.732,3.732,0,0,0,.858,2.542.629.629,0,0,1,.187.723c-.064.239-.206.813-.266,1.04a.448.448,0,0,1-.651.325C.846,12.312,0,10.329,0,8.1,0,4.417,3.114,0,9.291,0c4.964,0,8.23,3.582,8.23,7.427,0,5.086-2.835,8.886-7.014,8.886A3.729,3.729,0,0,1,7.331,14.7s-.755,2.987-.914,3.564A13.817,13.817,0,0,1,4.07,22.5a.177.177,0,0,1-.141.068A.164.164,0,0,1,3.761,22.429ZM29.12,17.594c0-1.415,1.085-4.637,1.155-5.534a1.068,1.068,0,0,0-1.122-1.235c-1.34,0-2.292,1.017-2.677,2.552,0,0-1.457,5.715-1.525,6a.475.475,0,0,1-.541.431H22.459c-.314,0-.4-.236-.33-.5l.2-.79a4.367,4.367,0,0,1-3.2,1.536A2.155,2.155,0,0,1,16.774,17.6a25.112,25.112,0,0,1,.868-4.086c.569-2.255,1.1-4.281,1.1-4.281a.5.5,0,0,1,.541-.432h1.906a.35.35,0,0,1,.377.473c-.049.2-.505,1.886-1.022,3.936a24.335,24.335,0,0,0-.782,3.593c0,.637.267,1.011.865,1.011,1.165,0,2.254-1.469,2.7-3.226.656-2.567,1.338-5.241,1.362-5.335a.516.516,0,0,1,.574-.452h1.894a.346.346,0,0,1,.367.455c-.056.217-.219.782-.219.782a4.254,4.254,0,0,1,3.024-1.477c1.939,0,2.884,1.019,2.884,2.777,0,1.316-1.144,4.218-1.144,5.376,0,.736.288,1.079.97,1.079a1.122,1.122,0,0,0,.739-.311l.88,1.059a4.042,4.042,0,0,1-3.129,1.509A2.195,2.195,0,0,1,29.12,17.594Zm15.39.92a3.909,3.909,0,0,1-3.067,1.479c-1.722,0-3.609-1.049-3.609-2.44a24.981,24.981,0,0,1,.864-4.068c.566-2.245,1.1-4.262,1.1-4.262a.5.5,0,0,1,.539-.43h1.9a.348.348,0,0,1,.375.471c-.048.2-.5,1.878-1.018,3.92a24.232,24.232,0,0,0-.777,3.577c0,.633.923,1.008,1.519,1.008,1.137,0,2.4-2.081,2.6-2.971.44-1.849.985-3.915,1-3.958H44.395a.33.33,0,0,1-.356-.436c.048-.189.223-.883.318-1.279a.48.48,0,0,1,.536-.4H46.46l.8-3.207a.729.729,0,0,1,.6-.616c.28-.058,1.789-.352,1.789-.352.319-.067.624.143.538.506-.021.092-.92,3.669-.92,3.669H51.22a.33.33,0,0,1,.357.436c-.05.19-.224.882-.319,1.279a.481.481,0,0,1-.536.4H48.736c-.238.949-.453,1.8-.6,2.366a25.786,25.786,0,0,0-.81,3.562.884.884,0,0,0,.928,1.008A2.317,2.317,0,0,0,49.978,16.6l1.067.841A4.813,4.813,0,0,1,46.8,20.016,2.122,2.122,0,0,1,44.51,18.514ZM19.1,6.156a2.2,2.2,0,0,1,2.066-1.774A1.432,1.432,0,0,1,22.6,6.156a2.192,2.192,0,0,1-2.064,1.8A1.434,1.434,0,0,1,19.1,6.156Zm21.049.006A2.189,2.189,0,0,1,42.207,4.4a1.425,1.425,0,0,1,1.43,1.766,2.183,2.183,0,0,1-2.055,1.792A1.428,1.428,0,0,1,40.15,6.162Z" transform="translate(0 0)" fill="#fff"/></g></g></svg>