<svg xmlns="http://www.w3.org/2000/svg" width="19.404" height="25" viewBox="0 0 19.404 25"><path d="M33.963,17.59c-.8,2.574-1.688,5.227-3.456,7.285a.329.329,0,0,1-.443.069.5.5,0,0,1-.5-.482,32.22,32.22,0,0,1,1.26-11.036,19.914,19.914,0,0,1,.748-2,3.721,3.721,0,0,1,.94-4.568c1.216-.92,2.83-.783,3.323.783.586,1.861-.044,4.322-.743,6.493.305.172.556.409.9.581a3.1,3.1,0,0,0,2.747.064,2.965,2.965,0,0,0,.763-.482,6.655,6.655,0,0,0,1.132-1.89c.118-.354.222-.724.325-1.093a5.953,5.953,0,0,0-4.12-7.093c-2.437-.738-5.326-.325-6.773,1.979a7.075,7.075,0,0,0-.694,5.045,3.322,3.322,0,0,1,.453,2.053,1.008,1.008,0,0,1-.172.34,1.389,1.389,0,0,1-1.905.128,2.162,2.162,0,0,1-.561-.679c-2.392-2.338-.492-7.61,1.309-9.722A10.079,10.079,0,0,1,40.835,1.218C44.891,3.409,46.54,9.1,44.729,13.3,43.08,17.122,37.783,19.579,33.963,17.59Z" transform="translate(-26.056)" fill="#c8232c"/></svg>