<svg xmlns="http://www.w3.org/2000/svg" width="21.716" height="20.168" viewBox="0 0 21.716 20.168"><path d="M4.089,28V22.889a.093.093,0,0,1,.093-.093H14.4a.1.1,0,0,1,.043.01l.341.141-.036.086.036-.086a.092.092,0,0,1,.035.025L17.1,25.226l.148.145-.065.067.065-.067a.094.094,0,0,1,.028.067V28a.093.093,0,0,1-.093.093h-.992A.093.093,0,0,1,16.1,28V26.781H13.474a.094.094,0,0,1-.094-.093s0-.005,0-.008v-.49h0V23.979H5.272V28a.093.093,0,0,1-.093.093h-1A.093.093,0,0,1,4.09,28Zm1.37,6.788H16.234l.022,0a1.148,1.148,0,0,1,1.036.707,1.124,1.124,0,0,1,.086.415.078.078,0,0,1,0,.022v1.634h2.325l.02,0a.8.8,0,0,0,.29-.062.843.843,0,0,0,.267-.18.833.833,0,0,0,.18-.267.8.8,0,0,0,.062-.291.157.157,0,0,1,0-.018V30.492a.11.11,0,0,1,0-.02.805.805,0,0,0-.063-.29.831.831,0,0,0-.179-.267.85.85,0,0,0-.267-.18.792.792,0,0,0-.292-.062l-.018,0H1.988l-.02,0a.8.8,0,0,0-.29.063.851.851,0,0,0-.267.18.831.831,0,0,0-.18.267.8.8,0,0,0-.062.292.126.126,0,0,1,0,.018V36.75a.1.1,0,0,1,0,.019.791.791,0,0,0,.063.29.833.833,0,0,0,.18.267.842.842,0,0,0,.267.18.8.8,0,0,0,.292.063l.018,0H4.313V35.933a.12.12,0,0,1,0-.022A1.149,1.149,0,0,1,4.4,35.5a1.164,1.164,0,0,1,.236-.358.082.082,0,0,1,.012-.014,1.145,1.145,0,0,1,.788-.334l.022,0h0Zm11.921,3.963v3.07a.078.078,0,0,1,0,.022,1.119,1.119,0,0,1-.087.416,1.142,1.142,0,0,1-1.035.706l-.021,0H5.459l-.021,0a1.15,1.15,0,0,1-.415-.086,1.149,1.149,0,0,1-.62-.62,1.119,1.119,0,0,1-.087-.416.079.079,0,0,1,0-.022v-3.07H1.988l-.021,0A2,2,0,0,1-.009,36.771a.1.1,0,0,1,0-.021V30.492a.089.089,0,0,1,0-.021A2,2,0,0,1,1.967,28.5l.021,0H19.706l.021,0A2,2,0,0,1,21.7,30.471a.089.089,0,0,1,0,.021v6.257a.091.091,0,0,1,0,.021,2,2,0,0,1-1.975,1.976l-.021,0H17.381ZM15.8,25.6l-1.238-1.221V25.6Zm.4,10.37H5.5v5.813H16.2V35.969Z" transform="translate(0.011 -22.796)" fill="#fff"/></svg>