<svg xmlns="http://www.w3.org/2000/svg" xmlns:xlink="http://www.w3.org/1999/xlink" width="40.975" height="38.769" viewBox="0 0 40.975 38.769">
  <defs>
    <filter id="Path_30603" x="0" y="0" width="40.975" height="38.769" filterUnits="userSpaceOnUse">
      <feOffset dy="3" input="SourceAlpha"/>
      <feGaussianBlur stdDeviation="3" result="blur"/>
      <feFlood flood-color="#e84e3b" flood-opacity="0.259"/>
      <feComposite operator="in" in2="blur"/>
      <feComposite in="SourceGraphic"/>
    </filter>
  </defs>
  <g transform="matrix(1, 0, 0, 1, 0, 0)" filter="url(#Path_30603)">
    <path id="Path_30603-2" data-name="Path 30603" d="M25.623,65.891c1.266.678,3.7.471,5.556-1.383,1.838-1.838,2.532-4.525.795-6.321h0c-.009-.007-.038-.038-.045-.045h0c-1.794-1.737-4.48-1.043-6.321.795-1.852,1.854-2.061,4.29-1.383,5.556-.173,1.036-1.6,2.162-2.872,2.891A4.6,4.6,0,0,1,19,63.551a2.956,2.956,0,0,0-.849-2.415c-.061-.061-.234-.209-.234-.209l-4.8-3.742-.438.436,5.212,4.891-.565.565-5.05-5.048-.464.464,5.05,5.05-.478.478-5.048-5.05-.422.42,5.019,5.017-.574.577-4.876-5.162L10,60.3l3.986,5.022s.094.1.136.134a2.958,2.958,0,0,0,2.03.727l.016,0a4.726,4.726,0,0,1,3.807,2.169L12.57,75.766l0,0a.129.129,0,0,1-.019.014,1.167,1.167,0,0,0,0,1.653l.134.134a1.167,1.167,0,0,0,1.653,0,.13.13,0,0,0,.014-.019l0,0,7.2-7.2c1.9,1.9,7.16,7.158,7.16,7.158l0,0s.007.012.014.019A1.153,1.153,0,0,0,30.357,75.9c-.007-.007-.014-.009-.019-.014l0,0s-5.812-5.81-7.423-7.423C23.64,67.272,24.669,66.05,25.623,65.891Zm-.617-3.472A6.009,6.009,0,0,1,25.2,61.38a5.341,5.341,0,0,1,.2-.572,3.4,3.4,0,0,1,.307-.572,4.1,4.1,0,0,1,.865-.9,5.46,5.46,0,0,1,.882-.577,4.075,4.075,0,0,1,.687-.3,1.256,1.256,0,0,1,.279-.066,2.73,2.73,0,0,0-.211.183l-.53.495A13,13,0,0,0,26.231,60.6a2.839,2.839,0,0,0-.274.467c-.087.164-.164.333-.234.5-.145.333-.265.654-.37.931s-.181.513-.227.68a.492.492,0,0,0-.035.267A.5.5,0,0,1,25,63.171,3.815,3.815,0,0,1,25.007,62.419Z" transform="translate(-1 -51.14)" fill="#e84e3b"/>
  </g>
</svg>
