<svg xmlns="http://www.w3.org/2000/svg" width="27.78" height="19.154" viewBox="0 0 27.78 19.154"><g transform="translate(-29.762 -494)"><path d="M25.886,35.381a3.921,3.921,0,1,0-5.527,5.03,5.352,5.352,0,0,1,3.509-1.93A7.613,7.613,0,0,1,25.886,35.381Z" transform="translate(16.012 465.521)" fill="#374757" opacity="0.6"/><path d="M29.536,20.663a.924.924,0,0,0,.936-.936V18.236a.936.936,0,1,0-1.872,0v1.491A.942.942,0,0,0,29.536,20.663Z" transform="translate(8.795 476.7)" fill="#374757" opacity="0.6"/><path d="M11.534,27.579a.926.926,0,0,0,.673.263.976.976,0,0,0,.673-.263.9.9,0,0,0,0-1.316L11.826,25.21a.93.93,0,1,0-1.316,1.316Z" transform="translate(21.796 471.305)" fill="#374757" opacity="0.6"/><path d="M5.892,44.236a.924.924,0,0,0-.936-.936H3.436a.936.936,0,1,0,0,1.872H4.927A.949.949,0,0,0,5.892,44.236Z" transform="translate(27.262 458.303)" fill="#374757" opacity="0.6"/><path d="M11.463,58.41,10.41,59.463a.9.9,0,0,0,0,1.316.926.926,0,0,0,.673.263,1.03,1.03,0,0,0,.673-.263l1.053-1.053a.9.9,0,0,0,0-1.316A.936.936,0,0,0,11.463,58.41Z" transform="translate(21.867 447.814)" fill="#374757" opacity="0.6"/><path d="M44.353,27.842a1.03,1.03,0,0,0,.673-.263l1.053-1.053a.93.93,0,0,0-1.316-1.316L43.71,26.263a.921.921,0,0,0,.643,1.579Z" transform="translate(-1.695 471.305)" fill="#374757" opacity="0.6"/><path d="M42.734,43.5a3.97,3.97,0,0,0-.848.088,5.787,5.787,0,0,0-11.2,1.111,3.582,3.582,0,0,0-.556-.058,3.831,3.831,0,1,0,0,7.662h12.6a4.4,4.4,0,0,0,0-8.8Z" transform="translate(10.422 460.851)" fill="#374757" opacity="0.6"/><path d="M30.984,40.783a1.132,1.132,0,0,0-.242.025,1.649,1.649,0,0,0-3.192.317,1.021,1.021,0,0,0-.158-.017,1.092,1.092,0,1,0,0,2.183h3.592a1.254,1.254,0,0,0,0-2.508Z" transform="translate(22.341 466.763)" fill="#fff" opacity="0.5"/></g></svg>