<svg xmlns="http://www.w3.org/2000/svg" width="19.51" height="19.51" viewBox="0 0 19.51 19.51">
  <g id="clock_1_" data-name="clock (1)" transform="translate(-0.005)" opacity="0.6">
    <g id="Group_2830" data-name="Group 2830" transform="translate(3.009)">
      <g id="Group_2829" data-name="Group 2829">
        <path id="Path_26353" data-name="Path 26353" d="M77.116,4.207,75.96,3.025a.551.551,0,0,0-.791,0,.58.58,0,0,0,0,.808l1.156,1.181a.551.551,0,0,0,.791,0A.58.58,0,0,0,77.116,4.207ZM88.342,3.025a.551.551,0,0,0-.791,0L86.212,4.392a.58.58,0,0,0,0,.808A.551.551,0,0,0,87,5.2l1.339-1.367A.58.58,0,0,0,88.342,3.025Zm-9.81,13.317a.559.559,0,0,0-.751.256l-1,2.085a.578.578,0,0,0,.25.767.551.551,0,0,0,.25.06.559.559,0,0,0,.5-.316l1-2.085A.578.578,0,0,0,78.532,16.342ZM82.874,0H80.636a.565.565,0,0,0-.559.572.565.565,0,0,0,.559.572H81.2V2.9a.56.56,0,1,0,1.119,0V1.143h.559a.565.565,0,0,0,.559-.572A.565.565,0,0,0,82.874,0Zm2.855,16.6a.556.556,0,0,0-.751-.256.578.578,0,0,0-.25.767l1,2.085a.559.559,0,0,0,.5.316.551.551,0,0,0,.25-.06.578.578,0,0,0,.25-.767Z" transform="translate(-75.005)" fill="#374757"/>
      </g>
    </g>
    <g id="Alarm_Clock_1_" transform="translate(0.005 0.034)">
      <path id="Subtraction_2" data-name="Subtraction 2" d="M7.912,15.825a7.912,7.912,0,1,1,7.912-7.913A7.921,7.921,0,0,1,7.912,15.825Zm0-13.564a5.652,5.652,0,1,0,5.652,5.651A5.657,5.657,0,0,0,7.912,2.261Z" transform="translate(1.843 2.409)" fill="#374757"/>
      <g id="Group_2834" data-name="Group 2834" transform="translate(0)">
        <g id="Group_2833" data-name="Group 2833">
          <path id="Path_26356" data-name="Path 26356" d="M1.01,1.878A3.675,3.675,0,0,0,0,4.427a3.675,3.675,0,0,0,1,2.549.552.552,0,0,0,.808,0L5.859,2.728a.623.623,0,0,0,0-.85,3.388,3.388,0,0,0-4.849,0Zm17.5,0a3.388,3.388,0,0,0-4.849,0,.623.623,0,0,0,0,.85L17.7,6.976a.552.552,0,0,0,.808,0,3.675,3.675,0,0,0,1-2.549,3.675,3.675,0,0,0-1-2.549Z" transform="translate(-0.005 -0.857)" fill="#374757"/>
        </g>
      </g>
      <g id="Group_2835" data-name="Group 2835" transform="translate(6.822 6.645)">
        <path id="Path_26357" data-name="Path 26357" d="M181.607,187.609a.6.6,0,0,1-.425-1.026l2.227-2.227V181.6a.6.6,0,0,1,1.2,0v3a.6.6,0,0,1-.176.425l-2.4,2.4A.6.6,0,0,1,181.607,187.609Z" transform="translate(-181.006 -181)" fill="#374757"/>
      </g>
    </g>
  </g>
</svg>
