<svg xmlns="http://www.w3.org/2000/svg" width="22" height="20.39" viewBox="0 0 22 20.39">
  <g id="Group_9" data-name="Group 9" transform="translate(-263.223 -250.745)" opacity="0.6">
    <path id="Path_30604" data-name="Path 30604" d="M337.173,260.819a9.492,9.492,0,0,1,5.256-7.986,9.765,9.765,0,0,0-6.274,7.965h-.9a8.706,8.706,0,0,1,2.321-6.083,8.31,8.31,0,0,1,5.91-2.768v-.466a4.413,4.413,0,0,1-.553-.159.359.359,0,0,1-.2-.223c-.009-.056.114-.166.2-.2a2.41,2.41,0,0,1,1.718,0c.083.031.19.132.192.2s-.1.163-.185.208a.752.752,0,0,1-.332.1c-.2.006-.259.089-.233.273a2.073,2.073,0,0,1,0,.265,8.689,8.689,0,0,1,8.209,8.861Zm13.018-3.358c-.066-1.545-1.552-3.5-2.885-3.771a4.514,4.514,0,0,1,2.417,3.771Z" transform="translate(-67.801)" fill="#374757"/>
    <path id="Path_30605" data-name="Path 30605" d="M305.859,459.615c0-.734.012-1.468,0-2.2a1.039,1.039,0,0,1,.46-.9,3.988,3.988,0,0,1,2.07-.647,3.564,3.564,0,0,1,1.736.3c1.492.6,2.988,1.2,4.483,1.8.048.019.1.035.143.056a1.042,1.042,0,0,1,.483,1.709,1.2,1.2,0,0,1-1.487.519c-.513-.171-1.016-.373-1.523-.561-.082-.03-.164-.065-.248-.089a.6.6,0,0,0-.816.564.394.394,0,0,0,.312.421c.6.227,1.2.459,1.806.69.123.047.248.09.368.145a1,1,0,0,0,.981-.08q2.664-1.518,5.338-3.018a2.028,2.028,0,0,1,1.375-.261.942.942,0,0,1,.781,1.187,1.637,1.637,0,0,1-.819,1.11q-2.333,1.3-4.643,2.64c-.424.245-.815.548-1.229.812a2.277,2.277,0,0,1-2.1.245c-1.265-.444-2.514-.921-3.746-1.453a5.688,5.688,0,0,0-3.258-.33c-.4.067-.467.015-.467-.391Q305.858,460.748,305.859,459.615Z" transform="translate(-40.128 -193.071)" fill="#374757"/>
    <path id="Path_30606" data-name="Path 30606" d="M342,429.247v.723h-18.46v-.723Z" transform="translate(-56.775 -168.026)" fill="#374757"/>
    <path id="Path_30607" data-name="Path 30607" d="M265.384,480.3c0,.66,0,1.32,0,1.98a.517.517,0,0,1-.577.585q-.506,0-1.012,0a.525.525,0,0,1-.569-.579c0-.924,0-1.848,0-2.772,0-.4,0-.807,0-1.21a.543.543,0,0,1,.585-.594c.33-.006.66-.005.99,0a.533.533,0,0,1,.583.589C265.385,478.965,265.384,479.632,265.384,480.3Zm-.793-1.385a.4.4,0,0,0,.393-.367.393.393,0,1,0-.786-.024A.4.4,0,0,0,264.591,478.915Z" transform="translate(0 -213.639)" fill="#374757"/>
  </g>
</svg>
