<svg xmlns="http://www.w3.org/2000/svg" width="15.334" height="15.334" viewBox="0 0 15.334 15.334"><g transform="translate(-62.834 -0.328)" opacity="0.6"><path d="M29.022,20A1.022,1.022,0,0,0,28,21.022v8.69a1.022,1.022,0,1,0,2.045,0v-8.69A1.022,1.022,0,0,0,29.022,20Z" transform="translate(41.479 -15.072)" fill="#374757"/><path d="M16.022,32A1.022,1.022,0,0,0,15,33.022v5.623a1.022,1.022,0,1,0,2.045,0V33.022A1.022,1.022,0,0,0,16.022,32Z" transform="translate(51.156 -24.005)" fill="#374757"/><path d="M3.022,46A1.022,1.022,0,0,0,2,47.022v2.045a1.022,1.022,0,0,0,2.045,0V47.022A1.022,1.022,0,0,0,3.022,46Z" transform="translate(60.834 -34.427)" fill="#374757"/><path d="M42.022,8A1.022,1.022,0,0,0,41,9.022V20.779a1.022,1.022,0,0,0,2.045,0V9.022A1.022,1.022,0,0,0,42.022,8Z" transform="translate(31.801 -6.138)" fill="#374757"/><path d="M55.022,2A1.022,1.022,0,0,0,54,3.022v13.29a1.022,1.022,0,0,0,2.045,0V3.022A1.022,1.022,0,0,0,55.022,2Z" transform="translate(22.124 -1.672)" fill="#374757"/></g></svg>