<svg xmlns="http://www.w3.org/2000/svg" xmlns:xlink="http://www.w3.org/1999/xlink" width="32.877" height="37.76" viewBox="0 0 32.877 37.76">
  <defs>
    <filter id="Subtraction_1" x="0" y="0" width="32.877" height="37.76" filterUnits="userSpaceOnUse">
      <feOffset dy="3" input="SourceAlpha"/>
      <feGaussianBlur stdDeviation="3" result="blur"/>
      <feFlood flood-color="#e84e3b" flood-opacity="0.259"/>
      <feComposite operator="in" in2="blur"/>
      <feComposite in="SourceGraphic"/>
    </filter>
  </defs>
  <g id="flame" transform="translate(-54.168 6)">
    <g transform="matrix(1, 0, 0, 1, 54.17, -6)" filter="url(#Subtraction_1)">
      <path id="Subtraction_1-2" data-name="Subtraction 1" d="M8.051,19.76a7.467,7.467,0,0,1-5.068-1.786,13.916,13.916,0,0,1-2.391-3.38,7.659,7.659,0,0,1-.453-4.411A9.539,9.539,0,0,1,2.035,6.1a3.943,3.943,0,0,0,.989,2.886A6.809,6.809,0,0,1,4.591,3.3,11.76,11.76,0,0,1,9.621,0a4.083,4.083,0,0,0-.7,3.876A12.775,12.775,0,0,0,10.4,6.921l0,0c.122.2.248.412.369.619a8.229,8.229,0,0,1,1.4,3.792q.092-.173.185-.346a10.761,10.761,0,0,0,.845-1.839,4.277,4.277,0,0,0,.165-2.392,6.167,6.167,0,0,1,1.36,2.968,12.349,12.349,0,0,1,.041,3.5,8.643,8.643,0,0,1-1.2,3.669,6.878,6.878,0,0,1-3.587,2.68A11.167,11.167,0,0,1,8.051,19.76ZM4.426,11.74A4.239,4.239,0,0,0,3.4,14.585a4.227,4.227,0,0,0,2.722,3.627,3.708,3.708,0,0,0,1.351.259,4.1,4.1,0,0,0,3.507-2.156,3.757,3.757,0,0,0,.006-3.874.054.054,0,0,0-.021-.041.057.057,0,0,1-.02-.03,4.192,4.192,0,0,1-1.031,3.618,3.9,3.9,0,0,0-.371-3.134,16.082,16.082,0,0,0-.987-1.577c-.254-.374-.517-.759-.744-1.144a4.276,4.276,0,0,1-.7-3.092,5.454,5.454,0,0,0-1.979,3.051,5.52,5.52,0,0,0,.412,3.628A2.718,2.718,0,0,1,4.426,11.74Z" transform="translate(9 6)" fill="#374757" opacity="0.6"/>
    </g>
  </g>
</svg>
