<svg xmlns="http://www.w3.org/2000/svg" width="18.148" height="16.796" viewBox="0 0 18.148 16.796">
  <g id="Group_19" data-name="Group 19" transform="translate(-169.177 -331.059)" opacity="0.55">
    <path id="Path_30608" data-name="Path 30608" d="M171.257,432.2v-1.927c-.1-.027-.191-.048-.281-.08a.7.7,0,0,1,.17-1.355c.053,0,.108,0,.161,0H185.1c.479,0,.771.22.816.6a.7.7,0,0,1-.468.761c-.089.038-.216.135-.218.209-.018.578-.01,1.157-.01,1.783a1.362,1.362,0,0,0,.738-.8.7.7,0,0,1,1.084-.339.692.692,0,0,1,.226.837,2.656,2.656,0,0,1-1.766,1.665.349.349,0,0,0-.288.408c.01,1.26.006,2.52,0,3.78a1.413,1.413,0,0,1-1.577,1.572H172.853a1.41,1.41,0,0,1-1.58-1.568c0-1.249-.007-2.5,0-3.747,0-.249-.051-.371-.316-.453a2.637,2.637,0,0,1-1.692-1.531.721.721,0,0,1,.32-1.037.707.707,0,0,1,.967.476A1.4,1.4,0,0,0,171.257,432.2Z" transform="translate(0 -91.459)" fill="#374757"/>
    <path id="Path_30609" data-name="Path 30609" d="M192.767,332.748c.634-.083,1.243-.142,1.843-.248a1.821,1.821,0,0,1,1.624.416,1.983,1.983,0,0,0,1.709.574.643.643,0,0,1,.716.628.679.679,0,0,1-.608.745q-4.111.553-8.223,1.1c-1.845.247-3.69.492-5.534.748a.761.761,0,0,1-.844-.323.7.7,0,0,1,.534-1.064,1.451,1.451,0,0,0,.992-.548c.939-1.322,1.111-1.109,2.579-1.336.328-.051.657-.093,1.017-.143-.015-.176-.024-.333-.041-.489a1.4,1.4,0,0,1,1.183-1.557q.734-.11,1.473-.185a1.414,1.414,0,0,1,1.5,1.18C192.714,332.393,192.735,332.542,192.767,332.748Zm-2.774.377,1.36-.2-.057-.468-1.36.2Z" transform="translate(-13.248)" fill="#374757"/>
  </g>
</svg>
