<svg xmlns="http://www.w3.org/2000/svg" width="20.763" height="18.77" viewBox="0 0 20.763 18.77">
  <path id="Path_30603" data-name="Path 30603" d="M24.12,65.049a4.574,4.574,0,0,0,5.022-1.25c1.661-1.661,2.288-4.089.718-5.712h0c-.008-.006-.034-.034-.04-.04h0c-1.621-1.57-4.049-.943-5.712.718a4.578,4.578,0,0,0-1.25,5.022c-.157.936-1.443,1.954-2.6,2.612a4.158,4.158,0,0,1-2.127-3.464,2.672,2.672,0,0,0-.767-2.182c-.055-.055-.212-.189-.212-.189l-4.339-3.382-.4.394L17.13,62l-.511.511-4.564-4.562-.42.42L16.2,62.928l-.432.432L11.206,58.8l-.381.379,4.536,4.534-.519.521-4.407-4.666L10,60l3.6,4.538s.085.087.123.121a2.673,2.673,0,0,0,1.835.657l.015,0a4.271,4.271,0,0,1,3.441,1.96l-6.693,6.7,0,0a.116.116,0,0,1-.017.013,1.055,1.055,0,0,0,0,1.494l.121.121a1.055,1.055,0,0,0,1.494,0,.118.118,0,0,0,.013-.017l0,0,6.5-6.5c1.716,1.714,6.471,6.469,6.471,6.469l0,0s.006.011.013.017A1.042,1.042,0,0,0,28.4,74.094c-.006-.006-.013-.008-.017-.013l0,0s-5.252-5.25-6.708-6.708C22.327,66.3,23.257,65.193,24.12,65.049Zm-.557-3.138a5.431,5.431,0,0,1,.174-.939,4.827,4.827,0,0,1,.178-.517,3.069,3.069,0,0,1,.278-.517,3.7,3.7,0,0,1,.782-.809,4.935,4.935,0,0,1,.8-.521,3.683,3.683,0,0,1,.621-.267,1.135,1.135,0,0,1,.252-.059,2.467,2.467,0,0,0-.191.165l-.479.447a11.748,11.748,0,0,0-1.305,1.375,2.566,2.566,0,0,0-.248.422c-.078.148-.148.3-.212.451-.131.3-.239.591-.335.841s-.163.464-.206.614a.445.445,0,0,0-.032.242.449.449,0,0,1-.076-.248A3.448,3.448,0,0,1,23.562,61.911Z" transform="translate(-10 -57.142)" fill="#374757" opacity="0.6"/>
</svg>
